<?xml version="1.0" encoding="UTF-8" standalone="no"?>
<!-- Created with Inkscape (http://www.inkscape.org/) -->

<svg
   width="100mm"
   height="100mm"
   viewBox="0 0 100 100"
   version="1.1"
   id="svg1"
   xml:space="preserve"
   inkscape:version="1.4.2 (f4327f4, 2025-05-13)"
   sodipodi:docname="trx-concept-logo-centrado.svg"
   inkscape:export-filename="trx-concept-logo-big.png"
   inkscape:export-xdpi="325.12"
   inkscape:export-ydpi="325.12"
   xmlns:inkscape="http://www.inkscape.org/namespaces/inkscape"
   xmlns:sodipodi="http://sodipodi.sourceforge.net/DTD/sodipodi-0.dtd"
   xmlns="http://www.w3.org/2000/svg"
   xmlns:svg="http://www.w3.org/2000/svg"><sodipodi:namedview
     id="namedview1"
     pagecolor="#ffffff"
     bordercolor="#000000"
     borderopacity="0.25"
     inkscape:showpageshadow="2"
     inkscape:pageopacity="0.0"
     inkscape:pagecheckerboard="0"
     inkscape:deskcolor="#d1d1d1"
     inkscape:document-units="mm"
     inkscape:zoom="0.5"
     inkscape:cx="333"
     inkscape:cy="387"
     inkscape:window-width="1920"
     inkscape:window-height="991"
     inkscape:window-x="-9"
     inkscape:window-y="-9"
     inkscape:window-maximized="1"
     inkscape:current-layer="layer1" /><defs
     id="defs1" /><g
     inkscape:label="Layer 1"
     inkscape:groupmode="layer"
     id="layer1"
     transform="translate(-55,-98.5)"><rect
       style="opacity:1;fill:#000000;stroke:#f9fe05;stroke-width:0;stroke-miterlimit:0"
       id="rect2"
       width="100"
       height="100"
       x="55"
       y="98.5" /><path
       id="path7"
       style="baseline-shift:baseline;display:inline;overflow:visible;opacity:1;vector-effect:none;fill:#f9fe05;stroke-miterlimit:0;enable-background:accumulate;stop-color:#000000;stop-opacity:1"
       inkscape:label="Corner"
       d="m 97.0116,117.14791 c -0.226861,0.0266 -0.453412,0.0563 -0.679546,0.0889 -11.664082,1.68333 -20.696236,11.25074 -21.705135,22.99239 -0.01596,0.1858 -0.02995,0.37146 -0.04186,0.55759 v 25.3566 H 87.679352 99.61144 V 155.4789 h -4.128945 v -2.55747 h -7.80314 v -12.13465 c 0.666758,-5.11183 4.369775,-9.21098 9.332245,-10.41694 h 38.40334 v -13.22193 z m 10.13892,35.77352 v 2.55747 h -4.12895 v 10.66447 h 6.17998 v -13.22194 z m 7.83311,0 c 0.75443,0.002 1.40522,0.0469 1.95234,0.13333 0.56238,0.0888 1.08943,0.28072 1.58078,0.57671 0.49726,0.29599 0.89073,0.68086 1.1808,1.15445 0.296,0.46767 0.44391,1.05696 0.44391,1.76733 0,0.97677 -0.22786,1.77283 -0.68368,2.38849 -0.44991,0.61566 -1.09519,1.12787 -1.9358,1.53634 l 4.41316,5.66529 h 0.0181 l 4.68809,-6.66006 -4.59042,-6.56188 z m 11.00088,0 2.7528,4.12017 2.83239,-4.12017 z m 9.35912,0 -4.61729,6.42907 4.68808,6.79287 h 5.2e-4 v -13.22194 z m -22.75003,2.43293 v 3.56102 h 1.04799 c 0.54463,0 1.00033,-0.0268 1.36736,-0.0801 0.36703,-0.0533 0.67483,-0.17489 0.92346,-0.36432 0.23679,-0.18352 0.40866,-0.38455 0.51521,-0.60358 0.11248,-0.22496 0.16847,-0.52416 0.16847,-0.89711 0,-0.33151 -0.068,-0.61535 -0.20412,-0.85214 -0.13616,-0.23679 -0.36974,-0.4235 -0.70125,-0.55966 -0.23088,-0.0947 -0.50039,-0.1507 -0.80822,-0.16846 -0.30783,-0.0237 -0.66589,-0.0357 -1.07435,-0.0357 z m 0,5.94072 v 4.84829 h 5.17694 l -3.60495,-4.84829 z m 16.02796,0.49713 -2.9037,4.35116 h 5.75417 z m -50.155599,4.72529 c -0.721921,0 -1.362246,0.12389 -1.920813,0.37156 -0.553297,0.24239 -0.987627,0.57672 -1.303796,1.00355 -0.310901,0.42683 -0.497973,0.87212 -0.561207,1.33584 -0.06323,0.45845 -0.09508,1.14903 -0.09508,2.07119 v 3.73879 c 0,1.25414 0.102998,2.19446 0.308509,2.82153 0.205511,0.6218 0.624431,1.10939 1.256771,1.46245 0.63234,0.35305 1.43585,0.52968 2.410708,0.52968 0.937967,0 1.725553,-0.20848 2.363163,-0.62477 0.642876,-0.41629 1.056835,-0.90088 1.241268,-1.45417 0.189702,-0.5533 0.28422,-1.49114 0.28422,-2.81378 v -0.49817 h -3.327445 v 1.60456 c 0,0.70084 -0.03981,1.14613 -0.118856,1.33583 -0.07377,0.18971 -0.234475,0.28474 -0.482141,0.28474 -0.258206,0 -0.423871,-0.095 -0.497644,-0.28474 -0.07377,-0.1897 -0.110588,-0.59518 -0.110588,-1.21698 v -5.94434 c 0,-0.64814 0.03682,-1.06955 0.110588,-1.26452 0.07377,-0.19497 0.247401,-0.29249 0.521415,-0.29249 0.242397,0 0.398135,0.0816 0.466638,0.24495 0.07377,0.15808 0.110588,0.56108 0.110588,1.20923 v 2.22932 h 3.327445 v -1.2175 c 0,-1.19617 -0.1,-2.07631 -0.30024,-2.64015 -0.200241,-0.5691 -0.619161,-1.04324 -1.256771,-1.42265 -0.637609,-0.3794 -1.446598,-0.56896 -2.426725,-0.56896 z m 9.538953,0 c -0.721922,0 -1.354284,0.11841 -1.897042,0.35554 -0.542759,0.23712 -0.974606,0.57694 -1.296045,1.01957 -0.31617,0.44264 -0.50624,0.93271 -0.569474,1.4702 -0.05796,0.53222 -0.08682,1.44121 -0.08682,2.72696 v 2.18953 c 0,1.31738 0.03185,2.23981 0.09508,2.76676 0.06323,0.52695 0.26075,1.01454 0.592728,1.46244 0.331979,0.44791 0.769307,0.78472 1.312065,1.01131 0.548028,0.22132 1.164465,0.33228 1.8495,0.33228 0.721921,0 1.354283,-0.11892 1.897041,-0.35605 0.542759,-0.23713 0.972124,-0.57694 1.288294,-1.01958 0.321439,-0.44263 0.51151,-0.9297 0.569474,-1.46192 0.06323,-0.53749 0.09457,-1.44948 0.09457,-2.73524 v -2.18953 c 0,-1.31737 -0.03133,-2.23929 -0.09457,-2.76624 -0.06323,-0.52695 -0.261267,-1.01453 -0.593245,-1.46244 -0.331979,-0.44791 -0.771789,-0.78224 -1.319816,-1.00356 -0.542759,-0.22658 -1.156714,-0.34003 -1.841748,-0.34003 z m 18.856216,0 c -0.72192,0 -1.36173,0.12389 -1.9203,0.37156 -0.55329,0.24239 -0.98814,0.57672 -1.30431,1.00355 -0.3109,0.42683 -0.49797,0.87212 -0.56121,1.33584 -0.0632,0.45845 -0.0951,1.14903 -0.0951,2.07119 v 3.73879 c 0,1.25414 0.103,2.19446 0.30851,2.82153 0.20551,0.6218 0.62443,1.10939 1.25677,1.46245 0.63234,0.35305 1.43585,0.52968 2.4107,0.52968 0.93797,0 1.72556,-0.20848 2.36317,-0.62477 0.64288,-0.41629 1.05683,-0.90088 1.24126,-1.45417 0.18971,-0.5533 0.28423,-1.49114 0.28423,-2.81378 v -0.49817 h -3.32745 v 1.60456 c 0,0.70084 -0.0393,1.14613 -0.11834,1.33583 -0.0738,0.18971 -0.23499,0.28474 -0.48266,0.28474 -0.2582,0 -0.42387,-0.095 -0.49764,-0.28474 -0.0738,-0.1897 -0.11059,-0.59518 -0.11059,-1.21698 v -5.94434 c 0,-0.64814 0.0368,-1.06955 0.11059,-1.26452 0.0738,-0.19497 0.2474,-0.29249 0.52141,-0.29249 0.2424,0 0.39814,0.0816 0.46664,0.24495 0.0738,0.15808 0.11059,0.56108 0.11059,1.20923 v 2.22932 h 3.32745 v -1.2175 c 0,-1.19617 -0.1,-2.07631 -0.30024,-2.64015 -0.20025,-0.5691 -0.61917,-1.04324 -1.25678,-1.42265 -0.63761,-0.3794 -1.44659,-0.56896 -2.42672,-0.56896 z m -13.15889,0.26872 v 12.79715 h 2.782259 v -5.81773 l 1.731161,5.81773 h 2.91662 v -12.79715 h -2.782261 v 5.76244 l -1.86552,-5.76244 z m 18.94355,0 v 12.79715 h 5.77019 v -2.56108 h -2.44275 v -2.81378 h 2.07895 v -2.43448 h -2.07895 v -2.42672 h 2.22106 v -2.56109 z m 7.3334,0 v 12.79715 h 3.32796 v -5.15369 h 0.89297 c 0.72719,0 1.31478,-0.1 1.76269,-0.30024 0.45317,-0.20024 0.76413,-0.48783 0.93275,-0.86196 0.16863,-0.37414 0.2527,-0.96917 0.2527,-1.78594 v -1.11466 c 0,-0.80096 -0.0448,-1.39103 -0.13436,-1.77043 -0.0843,-0.38468 -0.24997,-0.71156 -0.49764,-0.98031 -0.2424,-0.26874 -0.60858,-0.47422 -1.09864,-0.6165 -0.48479,-0.14227 -1.18086,-0.21342 -2.08721,-0.21342 z m 8.16333,0 v 2.56109 h 1.96835 v 10.23606 h 3.32796 v -10.23606 h 1.97559 v -2.56109 z m -40.121587,1.89704 c 0.205511,0 0.339842,0.0841 0.403076,0.2527 0.0685,0.16336 0.102837,0.54298 0.102837,1.13843 v 5.88078 c 0,0.75354 -0.03185,1.23068 -0.09509,1.43092 -0.06323,0.20024 -0.20801,0.30024 -0.434599,0.30024 -0.221319,0 -0.363613,-0.0871 -0.426847,-0.26097 -0.05796,-0.17389 -0.08682,-0.63211 -0.08682,-1.3751 v -5.97587 c 0,-0.65868 0.04478,-1.05372 0.134359,-1.18545 0.09485,-0.13701 0.229183,-0.20568 0.403076,-0.20568 z m 35.286217,0.29249 c 0.4321,0 0.71669,0.0657 0.8537,0.19741 0.13701,0.13173 0.20515,0.41632 0.20515,0.85369 v 1.05162 c 0,0.47425 -0.0607,0.78769 -0.1819,0.94051 -0.11593,0.14754 -0.32637,0.22117 -0.632,0.22117 -0.0685,0 -0.1501,-0.002 -0.24495,-0.008 z" /></g></svg>
